<?xml version="1.0" encoding="utf-8"?>
<!-- Generator: Adobe Illustrator 16.0.0, SVG Export Plug-In . SVG Version: 6.00 Build 0)  -->
<!DOCTYPE svg PUBLIC "-//W3C//DTD SVG 1.1//EN" "http://www.w3.org/Graphics/SVG/1.1/DTD/svg11.dtd">
<svg version="1.1" id="Layer_1" xmlns="https://www.w3.org/2000/svg" xmlns:xlink="https://www.w3.org/1999/xlink" x="0px" y="0px"
	 width="97px" height="86px" viewBox="0 0 97 86" enable-background="new 0 0 97 86" xml:space="preserve">
<g>
	<path fill="#006685" d="M52.111,48.979L74.29,70.663l0.146-21.694l9.959,0.041c3.71,0,6.729-3.019,6.729-6.731V12.346
		c0-3.71-3.019-6.728-6.724-6.728H12.344c-3.708,0-6.726,3.018-6.726,6.728v29.932c0,3.713,3.018,6.731,6.726,6.731L52.111,48.979z
		 M0,42.278V12.346C0,5.54,5.535,0,12.344,0H84.4c6.81,0,12.341,5.54,12.341,12.346v29.932c0,6.807-5.531,12.349-12.341,12.349
		h-4.266L80.034,84.56L49.733,54.627h-37.39C5.535,54.627,0,49.085,0,42.278"/>
	<path fill="#006685" d="M49.502,20.852c3.054,0,5.537,2.486,5.537,5.537c0,3.054-2.483,5.54-5.537,5.54
		c-3.054,0-5.538-2.486-5.538-5.54C43.964,23.337,46.448,20.852,49.502,20.852"/>
	<path fill="#006685" d="M67.617,21.258c3.059,0,5.537,2.486,5.537,5.537c0,3.054-2.479,5.54-5.537,5.54
		c-3.054,0-5.532-2.486-5.532-5.54C62.085,23.744,64.563,21.258,67.617,21.258"/>
	<path fill="#006685" d="M29.21,21.258c3.054,0,5.535,2.486,5.535,5.537c0,3.054-2.481,5.54-5.535,5.54s-5.535-2.486-5.535-5.54
		C23.676,23.744,26.157,21.258,29.21,21.258"/>
</g>
</svg>
