<?xml version="1.0" encoding="utf-8"?>
<!-- Generator: Adobe Illustrator 16.0.0, SVG Export Plug-In . SVG Version: 6.00 Build 0)  -->
<!DOCTYPE svg PUBLIC "-//W3C//DTD SVG 1.1//EN" "http://www.w3.org/Graphics/SVG/1.1/DTD/svg11.dtd">
<svg version="1.1" id="Layer_1" xmlns="http://www.w3.org/2000/svg" xmlns:xlink="http://www.w3.org/1999/xlink" x="0px" y="0px"
	 width="170px" height="162px" viewBox="0 0 170 162" enable-background="new 0 0 170 162" xml:space="preserve">
<g>
	<path fill="#006685" d="M0.301,46.111l0.16-0.192l2.363-0.318l0.161,0.126v9.044h1.502l0.255-0.128l6.646-8.499l0.255-0.162
		L15,45.601l0.127,0.16l-7.603,9.201L6.597,55.89l0.928,1.023l5.047,6.708c0.287,0.385,1.118,1.343,2.523,1.343
		c0.129,0,0.257,0,0.384-0.033l0.13,0.163l-0.353,2.171l-0.192,0.159c-0.193,0.033-0.383,0.033-0.575,0.033
		c-2.461,0-3.961-2.175-4.281-2.622l-5.591-7.571l-0.257-0.129H2.986v10.067l-0.161,0.159H0.461l-0.16-0.159V46.111z"/>
	<path fill="#006685" d="M26.67,65.188c3.26,0,5.656-1.757,5.656-5.56v-6.005c0-3.708-2.396-5.594-5.656-5.594
		c-3.259,0-5.656,1.886-5.656,5.594v6.005C21.014,63.431,23.411,65.188,26.67,65.188 M18.267,53.397
		c0-5.177,3.387-7.925,8.403-7.925c5.017,0,8.404,2.748,8.404,7.925v6.519c0,5.145-3.387,7.829-8.404,7.829
		c-5.016,0-8.403-2.684-8.403-7.829V53.397z"/>
</g>
<polygon fill="#006685" points="40.322,46.111 40.483,45.919 42.846,45.601 43.07,45.728 53.422,61.322 54.254,62.855 
	54.254,46.111 54.413,45.919 56.778,45.601 56.937,45.728 56.937,67.202 56.778,67.361 54.509,67.361 54.254,67.202 43.836,51.481 
	43.006,49.946 43.006,67.202 42.846,67.361 40.483,67.361 40.322,67.202 "/>
<polygon fill="#006685" points="62.921,46.111 63.082,45.919 65.445,45.601 65.605,45.728 65.605,67.202 65.445,67.361 
	63.082,67.361 62.921,67.202 "/>
<polygon fill="#006685" points="71.583,46.111 71.744,45.919 74.107,45.601 74.331,45.728 84.684,61.322 85.515,62.855 
	85.515,46.111 85.673,45.919 88.04,45.601 88.199,45.728 88.199,67.202 88.04,67.361 85.771,67.361 85.515,67.202 75.098,51.481 
	74.268,49.946 74.268,67.202 74.107,67.361 71.744,67.361 71.583,67.202 "/>
<g>
	<path fill="#006685" d="M6.5,96.866c2.301,0,4.635-0.989,4.635-3.898c0-2.877-2.302-3.93-4.635-3.93H2.986v7.828H6.5z
		 M6.308,86.576c2.205,0,4.283-0.607,4.283-3.196c0-2.682-2.078-3.162-4.283-3.162H2.986v6.358H6.308z M0.301,77.917l0.16-0.158
		h5.815c3.642,0,6.999,1.053,6.999,5.461c0,2.046-1.024,3.803-2.972,4.506c2.235,0.735,3.545,2.685,3.545,5.241
		c0,4.442-3.387,6.358-6.997,6.358h-6.39l-0.16-0.159V77.917z"/>
	<path fill="#006685" d="M18.648,78.077l0.162-0.192l2.363-0.318l0.16,0.125v13.901c0,3.8,2.46,5.559,5.656,5.559
		c3.354,0,5.655-1.759,5.655-5.559V78.077l0.161-0.192l2.365-0.318l0.16,0.125v14.189c0,5.145-3.164,7.829-8.34,7.829
		c-5.081,0-8.341-2.685-8.341-7.829V78.077z"/>
	<path fill="#006685" d="M39.651,97.569l1.31-1.788l0.287-0.034c0.927,0.798,2.972,1.404,4.377,1.404
		c2.269,0,4.187-0.988,4.187-3.671c0-5.146-9.555-2.878-9.555-9.908c0-3.834,2.94-6.135,6.392-6.135c3.195,0,5.207,1.31,5.496,1.598
		l0.031,0.224l-1.213,1.854l-0.255,0.031c-0.895-0.671-2.27-1.151-3.93-1.151c-2.556,0-3.771,1.472-3.771,3.483
		c0,4.793,9.555,2.589,9.555,9.971c0,4.793-3.803,6.265-7.031,6.265c-1.5,0-4.152-0.608-5.814-1.919L39.651,97.569z"/>
</g>
<polygon fill="#006685" points="57.326,78.077 57.486,77.885 59.85,77.567 60.01,77.692 60.01,99.165 59.85,99.326 57.486,99.326 
	57.326,99.165 "/>
<polygon fill="#006685" points="65.988,78.077 66.149,77.885 68.512,77.567 68.735,77.692 79.089,93.285 79.921,94.822 
	79.921,78.077 80.08,77.885 82.444,77.567 82.603,77.692 82.603,99.165 82.444,99.326 80.176,99.326 79.921,99.165 69.502,83.446 
	68.673,81.911 68.673,99.165 68.512,99.326 66.149,99.326 65.988,99.165 "/>
<polygon fill="#006685" points="88.589,77.917 88.75,77.759 99.835,77.759 99.996,77.917 99.996,80.155 99.835,80.314 
	91.274,80.314 91.274,86.704 98.718,86.704 98.846,86.865 98.271,89.101 98.079,89.259 91.274,89.259 91.274,96.77 99.868,96.77 
	99.996,96.928 99.677,99.167 99.484,99.326 88.75,99.326 88.589,99.167 "/>
<g>
	<path fill="#006685" d="M103.549,97.569l1.31-1.788l0.288-0.034c0.925,0.798,2.971,1.404,4.376,1.404
		c2.269,0,4.186-0.988,4.186-3.671c0-5.146-9.554-2.878-9.554-9.908c0-3.834,2.938-6.135,6.392-6.135
		c3.195,0,5.208,1.31,5.494,1.598l0.034,0.224l-1.216,1.854l-0.254,0.031c-0.896-0.671-2.271-1.151-3.931-1.151
		c-2.557,0-3.771,1.472-3.771,3.483c0,4.793,9.555,2.589,9.555,9.971c0,4.793-3.803,6.265-7.032,6.265
		c-1.499,0-4.151-0.608-5.814-1.919L103.549,97.569z"/>
	<path fill="#006685" d="M119.787,97.569l1.311-1.788l0.288-0.034c0.925,0.798,2.97,1.404,4.375,1.404
		c2.27,0,4.187-0.988,4.187-3.671c0-5.146-9.555-2.878-9.555-9.908c0-3.834,2.939-6.135,6.392-6.135c3.195,0,5.208,1.31,5.495,1.598
		l0.034,0.224l-1.217,1.854l-0.254,0.031c-0.896-0.671-2.271-1.151-3.931-1.151c-2.557,0-3.771,1.472-3.771,3.483
		c0,4.793,9.555,2.589,9.555,9.971c0,4.793-3.803,6.265-7.031,6.265c-1.5,0-4.152-0.608-5.813-1.919L119.787,97.569z"/>
</g>
<polygon fill="#006685" points="17.397,109.818 17.236,110.009 10.238,122.726 3.049,109.658 2.858,109.532 0.461,109.85 
	0.301,110.043 0.301,131.132 0.461,131.291 2.825,131.291 2.986,131.132 2.986,114.26 3.72,116.019 8.897,125.283 9.088,125.445 
	11.39,125.445 11.58,125.283 16.757,116.019 17.556,114.26 17.556,131.132 17.652,131.291 20.017,131.291 20.176,131.132 
	20.176,109.658 20.017,109.532 "/>
<polygon fill="#006685" points="27.791,109.882 27.952,109.724 39.039,109.724 39.199,109.882 39.199,112.121 39.039,112.28 
	30.476,112.28 30.476,118.669 37.92,118.669 38.048,118.829 37.474,121.066 37.281,121.225 30.476,121.225 30.476,128.736 
	39.069,128.736 39.199,128.894 38.879,131.132 38.688,131.291 27.952,131.291 27.791,131.132 "/>
<polygon fill="#006685" points="45.819,109.882 45.979,109.724 57.066,109.724 57.227,109.882 57.227,112.121 57.066,112.28 
	48.503,112.28 48.503,118.669 55.948,118.669 56.076,118.829 55.501,121.066 55.309,121.225 48.503,121.225 48.503,128.736 
	57.098,128.736 57.227,128.894 56.907,131.132 56.714,131.291 45.979,131.291 45.819,131.132 "/>
<polygon fill="#006685" points="67.489,112.28 61.546,112.28 61.386,112.119 61.386,109.882 61.546,109.724 76.532,109.724 
	76.659,109.882 76.085,112.119 75.893,112.28 70.174,112.28 70.174,131.132 70.013,131.291 67.65,131.291 67.489,131.132 "/>
<polygon fill="#006685" points="81.363,110.042 81.524,109.85 83.888,109.532 84.048,109.658 84.048,131.132 83.888,131.291 
	81.524,131.291 81.363,131.132 "/>
<polygon fill="#006685" points="91.656,110.042 91.816,109.85 94.18,109.532 94.404,109.658 104.756,125.252 105.587,126.786 
	105.587,110.042 105.748,109.85 108.112,109.532 108.271,109.658 108.271,131.132 108.112,131.291 105.843,131.291 105.587,131.132 
	95.17,115.412 94.341,113.876 94.341,131.132 94.18,131.291 91.816,131.291 91.656,131.132 "/>
<g>
	<path fill="#006685" d="M115.183,117.327c0-5.177,3.355-7.925,8.372-7.925c3.514,0,6.327,1.599,7.475,4.411l-0.094,0.189
		l-2.141,0.896l-0.224-0.063c-0.863-1.757-2.718-2.877-5.017-2.877c-3.26,0-5.626,1.886-5.626,5.595v6.006
		c0,3.803,2.366,5.56,5.626,5.56c3.321,0,5.688-1.757,5.688-5.56v-0.735h-3.677l-0.189-0.16l-0.32-2.236l0.128-0.16h6.583
		l0.158,0.16v3.421c0,5.143-3.194,7.827-8.37,7.827c-5.017,0-8.372-2.685-8.372-7.827V117.327z"/>
	<path fill="#006685" d="M0,144.647l0.098-0.116l1.447-0.198l0.098,0.079v5.537h0.92l0.156-0.079l4.074-5.202l0.155-0.1l2.056-0.235
		l0.079,0.096l-4.66,5.64l-0.566,0.569l0.566,0.625l3.093,4.11c0.176,0.236,0.684,0.822,1.545,0.822c0.079,0,0.157,0,0.236-0.021
		l0.079,0.1l-0.215,1.33l-0.12,0.1c-0.117,0.021-0.233,0.021-0.352,0.021c-1.506,0-2.427-1.334-2.622-1.607l-3.425-4.64
		l-0.158-0.079H1.644v6.169l-0.098,0.096H0.098L0,157.567V144.647z"/>
	<path fill="#006685" d="M16.032,156.332c1.996,0,3.464-1.074,3.464-3.404v-3.682c0-2.269-1.468-3.425-3.464-3.425
		c-1.997,0-3.466,1.156-3.466,3.425v3.682C12.566,155.257,14.036,156.332,16.032,156.332 M10.884,149.109
		c0-3.169,2.075-4.854,5.148-4.854c3.072,0,5.147,1.686,5.147,4.854v3.992c0,3.152-2.075,4.797-5.147,4.797
		c-3.073,0-5.148-1.645-5.148-4.797V149.109z"/>
</g>
<polygon fill="#006685" points="24.274,144.647 24.372,144.531 25.819,144.333 25.958,144.412 32.3,153.964 32.808,154.902 
	32.808,144.647 32.906,144.531 34.354,144.333 34.453,144.412 34.453,157.567 34.354,157.663 32.964,157.663 32.808,157.567 
	26.428,147.936 25.917,146.994 25.917,157.567 25.819,157.663 24.372,157.663 24.274,157.567 "/>
<polygon fill="#006685" points="38.094,144.531 37.996,144.647 37.996,157.567 38.094,157.663 39.541,157.663 39.641,157.567 
	39.641,144.412 39.541,144.333 "/>
<polygon fill="#006685" points="43.183,144.647 43.281,144.531 44.729,144.333 44.867,144.412 51.21,153.964 51.718,154.902 
	51.718,144.647 51.815,144.531 53.264,144.333 53.362,144.412 53.362,157.567 53.264,157.663 51.874,157.663 51.718,157.567 
	45.337,147.936 44.829,146.994 44.829,157.567 44.729,157.663 43.281,157.663 43.183,157.567 "/>
<polygon fill="#006685" points="61.916,150.44 61.25,150.617 61.134,150.556 60.8,149.365 60.859,149.246 61.916,148.973 
	61.916,144.647 62.014,144.527 63.462,144.333 63.559,144.412 63.559,148.522 65.694,147.953 65.792,148.01 65.792,149.263 
	65.714,149.403 63.559,149.99 63.559,156.1 69.198,156.1 69.276,156.195 68.924,157.563 68.807,157.663 62.014,157.663 
	61.916,157.563 "/>
<g>
	<path fill="#006685" d="M77.244,152.889l-2.016-5.994l-0.195-0.839l-0.195,0.839l-2.017,5.994H77.244z M74.014,144.647l0.117-0.1
		l1.723-0.215l0.119,0.079l4.599,13.155l-0.059,0.096c0,0-2.095,0.587-2.095,2.095c0,0.627,0.314,1.037,1.39,1.095l0.098,0.14
		l-0.215,0.86l-0.177,0.099c-1.448,0-2.681-0.706-2.681-1.9c0-1.174,1.076-2.074,1.937-2.524l-1.019-3.074h-5.441l-1.019,3.115
		l-0.097,0.096h-1.645l-0.059-0.096L74.014,144.647z"/>
	<path fill="#006685" d="M82.08,149.109c0-3.169,2.054-4.854,5.128-4.854c2.151,0,3.876,0.979,4.58,2.702l-0.06,0.116l-1.31,0.549
		l-0.139-0.041c-0.528-1.074-1.663-1.76-3.072-1.76c-1.996,0-3.446,1.156-3.446,3.425v3.682c0,2.33,1.45,3.404,3.446,3.404
		c1.605,0,2.761-0.648,3.308-1.821l0.137-0.038l1.272,0.488l0.059,0.119c-0.646,1.859-2.368,2.818-4.775,2.818
		c-3.074,0-5.128-1.645-5.128-4.797V149.109z"/>
</g>
<polygon fill="#006685" points="93.727,156.608 100.032,146.018 94.039,146.018 93.96,145.919 94.159,144.547 94.276,144.449 
	102.046,144.449 102.145,144.547 102.145,145.506 95.859,156.1 102.007,156.1 102.104,156.195 102.104,157.567 102.007,157.663 
	94.039,157.663 93.923,157.567 "/>
<polygon fill="#006685" points="107.234,151.87 103.259,144.684 103.358,144.547 105,144.333 105.119,144.412 107.742,149.618 
	108.054,150.381 108.388,149.618 110.874,144.684 110.971,144.568 112.753,144.333 112.87,144.412 108.878,151.87 108.878,157.563 
	108.779,157.663 107.331,157.663 107.234,157.563 "/>
<polygon fill="#006685" points="119.546,144.547 119.643,144.453 126.242,144.453 126.337,144.547 126.337,145.919 126.242,146.018 
	121.191,146.018 121.191,150.129 125.949,150.129 126.027,150.225 125.673,151.596 125.556,151.695 121.191,151.695 
	121.191,157.567 121.091,157.663 119.643,157.663 119.546,157.567 "/>
<polygon fill="#006685" points="128.981,144.531 128.882,144.647 128.882,157.567 128.981,157.663 130.429,157.663 130.529,157.567 
	130.529,144.412 130.429,144.333 "/>
<g>
	<path fill="#006685" d="M137.635,150.716c1.428,0,2.876-0.55,2.876-2.371c0-1.777-1.448-2.389-2.876-2.389h-1.921v4.76H137.635z
		 M134.072,144.547l0.097-0.095h3.485c1.035,0,2.054,0.174,2.876,0.682c0.96,0.607,1.626,1.645,1.626,3.211
		c0,3.64-3.818,3.817-3.818,3.817l0.432,0.43l2.291,2.76c0.331,0.393,0.82,0.822,1.564,0.822c0.078,0,0.137-0.021,0.215-0.021
		l0.078,0.1l-0.215,1.33l-0.115,0.1c-0.139,0.021-0.275,0.041-0.413,0.041c-1.352,0-2.25-1.174-2.604-1.624l-3.053-3.801
		l-0.137-0.079h-0.667v5.347l-0.098,0.096h-1.448l-0.097-0.096V144.547z"/>
</g>
<polygon fill="#006685" points="145.366,144.647 145.463,144.531 146.931,144.333 147.05,144.412 151.452,152.416 155.74,144.626 
	155.838,144.51 157.446,144.333 157.542,144.412 157.542,157.567 157.446,157.663 155.996,157.663 155.934,157.567 155.934,147.229 
	155.447,148.307 152.277,153.985 152.158,154.08 150.749,154.08 150.629,153.985 147.459,148.307 147.009,147.229 147.009,157.567 
	146.911,157.663 145.463,157.663 145.366,157.567 "/>
<polygon fill="#006685" points="163.474,151.87 159.5,144.684 159.598,144.547 161.243,144.333 161.359,144.412 163.982,149.618 
	164.296,150.381 164.627,149.618 167.114,144.684 167.213,144.568 168.994,144.333 169.11,144.412 165.119,151.87 165.119,157.563 
	165.019,157.663 163.573,157.663 163.474,157.563 "/>
<g>
	<path fill="#009FE3" d="M128.759,38.766L111.207,55.93l-0.118-17.172l-7.882,0.03c-2.939,0-5.326-2.39-5.326-5.325V9.771
		c0-2.934,2.387-5.324,5.324-5.324h57.025c2.937,0,5.321,2.39,5.321,5.324v23.691c0,2.935-2.385,5.325-5.321,5.325L128.759,38.766z
		 M170,33.462V9.771C170,4.384,165.617,0,160.23,0h-57.025c-5.389,0-9.771,4.384-9.771,9.771v23.691
		c0,5.388,4.383,9.772,9.771,9.772h3.372l0.084,23.689l23.979-23.689h29.591C165.617,43.234,170,38.85,170,33.462"/>
	<path fill="#009FE3" d="M131.681,16.826c-2.415,0-4.38,1.967-4.38,4.382c0,2.417,1.965,4.383,4.38,4.383
		c2.418,0,4.385-1.967,4.385-4.383C136.066,18.792,134.099,16.826,131.681,16.826"/>
	<path fill="#009FE3" d="M116.483,16.826c-2.416,0-4.383,1.967-4.383,4.382c0,2.417,1.967,4.383,4.383,4.383
		c2.415,0,4.38-1.967,4.38-4.383C120.863,18.792,118.898,16.826,116.483,16.826"/>
	<path fill="#009FE3" d="M146.883,16.826c-2.417,0-4.382,1.967-4.382,4.382c0,2.417,1.965,4.383,4.382,4.383
		c2.415,0,4.38-1.967,4.38-4.383C151.263,18.792,149.298,16.826,146.883,16.826"/>
</g>
</svg>
